<?xml version="1.0" encoding="utf-8"?>
<!-- Generator: Adobe Illustrator 16.0.0, SVG Export Plug-In . SVG Version: 6.00 Build 0)  -->
<!DOCTYPE svg PUBLIC "-//W3C//DTD SVG 1.1//EN" "http://www.w3.org/Graphics/SVG/1.1/DTD/svg11.dtd">
<svg version="1.1" id="Layer_1" xmlns="http://www.w3.org/2000/svg" xmlns:xlink="http://www.w3.org/1999/xlink" x="0px" y="0px"
	 width="210px" height="59px" viewBox="0 0 210 59" enable-background="new 0 0 210 59" xml:space="preserve">
<path fill="#373737" d="M195.477,27.595V2.782h-11.865v24.813H173.01V2.782h-11.865v1.731c-2.996-1.391-5.928-1.826-9.699-1.826
	c-9.047,0-16.336,4.325-18.252,12.359h-2.66l-1.438,3.722c-1.824-1.605-4.074-2.332-5.336-2.688
	c-3.725-1.081-7.238-1.504-8.568-1.691c-1.012-0.142-3.244-0.517-4.201-1.035c-0.533-0.327-0.959-0.891-0.959-1.504
	c0-1.126,1.275-1.643,1.49-1.737c1.117-0.422,2.553-0.422,2.818-0.422c2.82,0,6.6,0.516,8.781,2.301
	c0.318,0.235,0.584,0.517,1.064,1.081l7.5-5.498c-1.008-0.892-1.701-1.55-2.873-2.302c-5.373-3.478-12.131-3.572-14.045-3.572
	c-1.092,0-7.068-0.039-11.568,2.64l1.227-1.559H90.698l-7.235,11.043L76.065,2.782h-9.486h-4.242h-7.731v20.724
	c0,0.987,0,1.739-0.373,2.585c-1.063,2.491-4.042,2.63-4.842,2.63c-0.852,0-3.83-0.139-4.787-2.678
	c-0.427-1.033-0.373-2.208-0.373-2.537V2.782H32.313V5.99c-0.139-0.153-0.296-0.338-0.392-0.436
	c-1.598-1.456-4.257-2.304-6.491-2.584c-1.066-0.142-2.129-0.188-3.193-0.188h-1.25V0h-6.284v2.782h-4.159V0H4.259v2.782h-4.263
	V35.96h4.263v2.773h6.285V35.96h4.159v2.773h6.284V35.96h1.996c2.448,0,4.523-0.142,6.863-1.081c0.478-0.188,1.596-0.61,2.608-1.504
	c0.892-0.758,1.492-1.632,1.923-2.507c1.939,2.698,4.76,3.932,6.076,4.434c3.725,1.458,7.448,1.551,8.833,1.551
	c6.705,0,13.515-2.305,16.121-8.318c0.854-1.973,1.172-3.76,1.172-5.874V8.196l10.816,13.806V35.96h11.918V22.002l9.176-11.671
	c-0.275,1.073-0.325,1.99-0.325,2.507c-0.052,3.62,2.075,5.827,3.245,6.721c1.811,1.411,4.577,2.537,9.736,3.431
	c3.354,0.609,5.748,0.891,7.078,1.314c1.119,0.329,1.543,0.754,1.811,1.223c0.053,0.141,0.266,0.422,0.266,0.799
	c0,1.643-2.342,2.537-5.693,2.537c-2.607,0-6.545-0.704-8.674-2.349c-0.531-0.377-1.009-0.893-1.809-2.021l-9.099,5.123
	c1.276,1.458,2.288,2.443,3.99,3.571c4.469,2.96,9.687,3.76,15.163,3.76c1.598,0,7.93,0.093,12.771-3.056
	c1.65-1.082,4.949-3.76,4.949-8.694c0-0.242-0.059-0.431-0.074-0.659h1.207c0.639,3.009,2.182,5.876,4.576,8.083
	c3.777,3.48,9.1,4.371,14.365,4.371c3.215,0,6.285-0.486,9.17-1.686v0.652h22.467h3.926h22.467v-8.365H195.477z M11.861,9.785h6.811
	c0.426,0,2.236-0.093,3.139,1.174c0.214,0.281,0.479,0.798,0.479,1.644c0,0.283,0,0.987-0.425,1.551
	c-0.745,1.127-2.181,1.223-3.459,1.223h-6.544V9.785z M22.662,27.502c-0.852,1.081-2.075,1.313-3.405,1.313h-7.448v-6.483h7.183
	c0.479,0,2.712-0.048,3.779,1.503c0.479,0.704,0.53,1.41,0.53,1.785C23.301,25.998,23.25,26.749,22.662,27.502z M32.313,20.34
	c-0.682-0.5-1.389-0.915-2.253-1.158l-1.597-0.423c1.33-0.516,1.915-0.845,2.5-1.22c0.565-0.395,0.956-0.846,1.35-1.29V20.34z
	 M132.555,20.734h-1.826c-0.424-0.716-0.936-1.319-1.5-1.835l3.381-0.046L132.555,20.734z M161.145,25.726
	c-2.033,1.906-5.018,3.044-7.998,3.044c-3.299,0-6.703-1.268-7.77-4.231h10.271l1.596-3.805H144.58c0-0.612,0.055-1.269,0.16-1.881
	l13.248,0.048l1.598-3.854h-14.154c0.957-2.961,3.723-4.465,7.129-4.465c3.193,0,5.428,1.035,7.557,3.148l1.027-2.451V25.726z"/>
<g>
	<path fill="#373737" d="M4.651,46.014c0.273,0,0.566,0.004,0.88,0.01s0.626,0.023,0.934,0.053c0.308,0.03,0.596,0.074,0.863,0.134
		c0.267,0.059,0.495,0.147,0.685,0.266c0.416,0.25,0.768,0.594,1.059,1.032c0.29,0.439,0.436,0.979,0.436,1.619
		c0,0.676-0.164,1.261-0.489,1.753c-0.327,0.492-0.791,0.857-1.397,1.094v0.035c0.783,0.166,1.382,0.522,1.797,1.068
		c0.415,0.546,0.623,1.209,0.623,1.992c0,0.463-0.083,0.913-0.25,1.353c-0.167,0.438-0.412,0.827-0.739,1.165
		c-0.326,0.338-0.729,0.611-1.209,0.818c-0.48,0.207-1.035,0.312-1.664,0.312H0.044V46.014H4.651z M5.114,51.476
		c0.96,0,1.651-0.169,2.073-0.507c0.42-0.338,0.631-0.845,0.631-1.521c0-0.451-0.07-0.808-0.213-1.068
		c-0.142-0.261-0.337-0.463-0.587-0.604c-0.25-0.144-0.537-0.234-0.863-0.276c-0.327-0.041-0.673-0.062-1.041-0.062H1.733v4.039
		H5.114z M5.968,57.293c0.747,0,1.331-0.201,1.752-0.604c0.421-0.403,0.632-0.961,0.632-1.673c0-0.414-0.077-0.759-0.231-1.032
		c-0.154-0.272-0.359-0.488-0.614-0.649c-0.255-0.159-0.549-0.271-0.88-0.337c-0.333-0.065-0.676-0.098-1.032-0.098H1.733v4.394
		H5.968z"/>
	<path fill="#373737" d="M37.636,46.014v12.703h-1.69V46.014H37.636z"/>
	<path fill="#373737" d="M62.774,47.437v-1.423h10.159v1.423h-4.234v11.28h-1.69v-11.28H62.774z"/>
	<path fill="#373737" d="M105.659,47.811c-0.646-0.45-1.415-0.677-2.304-0.677c-0.759,0-1.409,0.144-1.948,0.428
		c-0.54,0.285-0.985,0.667-1.334,1.147c-0.35,0.48-0.608,1.029-0.775,1.646c-0.167,0.617-0.249,1.257-0.249,1.921
		c0,0.725,0.082,1.409,0.249,2.056s0.425,1.21,0.775,1.69c0.349,0.48,0.797,0.862,1.343,1.147c0.545,0.284,1.198,0.427,1.957,0.427
		c0.558,0,1.053-0.092,1.486-0.276c0.433-0.184,0.806-0.438,1.121-0.765c0.314-0.326,0.561-0.714,0.738-1.165
		c0.178-0.451,0.284-0.938,0.321-1.459h1.689c-0.166,1.602-0.718,2.847-1.654,3.736c-0.938,0.889-2.218,1.334-3.843,1.334
		c-0.985,0-1.845-0.169-2.58-0.507c-0.736-0.338-1.347-0.804-1.833-1.396c-0.486-0.593-0.851-1.292-1.093-2.1
		c-0.244-0.806-0.365-1.673-0.365-2.597c0-0.926,0.13-1.794,0.392-2.607c0.261-0.812,0.644-1.521,1.147-2.126
		c0.503-0.605,1.133-1.081,1.886-1.432c0.753-0.351,1.616-0.525,2.588-0.525c0.665,0,1.293,0.089,1.886,0.267
		c0.593,0.179,1.121,0.439,1.583,0.783c0.463,0.344,0.848,0.773,1.156,1.29c0.309,0.516,0.51,1.112,0.604,1.788h-1.69
		C106.724,48.938,106.306,48.261,105.659,47.811z"/>
	<path fill="#373737" d="M134.144,49.865c0.255-0.8,0.638-1.509,1.147-2.125c0.51-0.618,1.145-1.109,1.903-1.478
		s1.643-0.552,2.651-0.552c1.007,0,1.892,0.184,2.65,0.552c0.76,0.368,1.395,0.859,1.904,1.478c0.51,0.616,0.892,1.325,1.147,2.125
		c0.255,0.801,0.382,1.634,0.382,2.5c0,0.865-0.127,1.699-0.382,2.5c-0.256,0.8-0.638,1.51-1.147,2.126s-1.145,1.106-1.904,1.467
		c-0.759,0.362-1.644,0.543-2.65,0.543c-1.009,0-1.893-0.181-2.651-0.543c-0.759-0.36-1.394-0.851-1.903-1.467
		s-0.893-1.326-1.147-2.126c-0.256-0.801-0.383-1.635-0.383-2.5C133.761,51.499,133.888,50.666,134.144,49.865z M135.699,54.26
		c0.167,0.623,0.428,1.184,0.784,1.682c0.354,0.498,0.812,0.897,1.369,1.2s1.222,0.454,1.993,0.454c0.771,0,1.435-0.151,1.992-0.454
		s1.015-0.702,1.37-1.2s0.617-1.059,0.783-1.682c0.165-0.622,0.248-1.254,0.248-1.895c0-0.642-0.083-1.272-0.248-1.896
		c-0.166-0.622-0.428-1.183-0.783-1.681s-0.812-0.898-1.37-1.201c-0.558-0.302-1.222-0.454-1.992-0.454
		c-0.771,0-1.436,0.152-1.993,0.454c-0.558,0.303-1.015,0.703-1.369,1.201c-0.356,0.498-0.617,1.059-0.784,1.681
		c-0.165,0.623-0.248,1.254-0.248,1.896C135.451,53.006,135.534,53.638,135.699,54.26z"/>
	<path fill="#373737" d="M173.398,46.014v12.703h-1.69V46.014H173.398z"/>
	<path fill="#373737" d="M201.668,46.014l6.69,10.301h0.035V46.014h1.602v12.703h-1.851l-6.636-10.194h-0.036v10.194h-1.602V46.014
		H201.668z"/>
</g>
</svg>
