<?xml version="1.0" encoding="utf-8"?>
<!-- Generator: Adobe Illustrator 16.0.0, SVG Export Plug-In . SVG Version: 6.00 Build 0)  -->
<!DOCTYPE svg PUBLIC "-//W3C//DTD SVG 1.1//EN" "http://www.w3.org/Graphics/SVG/1.1/DTD/svg11.dtd">
<svg version="1.1" id="Layer_5" xmlns="http://www.w3.org/2000/svg" xmlns:xlink="http://www.w3.org/1999/xlink" x="0px" y="0px"
	 width="51px" height="15px" viewBox="0 0 51 15" enable-background="new 0 0 51 15" xml:space="preserve">
<path opacity="0.7" fill="#FFFFFF" d="M45.502,14.75l-4.615-5.578c0,0-0.698-0.66,0.06-0.66c0.762,0,2.602,0,2.602,0
	s0-0.446,0-1.131c0-1.964,0-5.531,0-6.985c0,0-0.104-0.395,0.495-0.395s3.23,0,3.657,0c0.43,0,0.418,0.331,0.418,0.331
	c0,1.413,0,5.104,0,6.999c0,0.615,0,1.015,0,1.015s1.475,0,2.402,0c0.925,0,0.228,0.691,0.228,0.691s-3.926,5.211-4.472,5.758
	C45.88,15.192,45.502,14.75,45.502,14.75z"/>
<path opacity="0.7" fill="#FFFFFF" d="M34.696,0.21l4.615,5.578c0,0,0.698,0.66-0.06,0.66c-0.762,0-2.602,0-2.602,0s0,0.446,0,1.131
	c0,1.965,0,5.531,0,6.985c0,0,0.104,0.396-0.495,0.396s-3.23,0-3.657,0c-0.43,0-0.418-0.331-0.418-0.331c0-1.413,0-5.104,0-6.999
	c0-0.615,0-1.015,0-1.015s-1.475,0-2.402,0c-0.925,0-0.228-0.691-0.228-0.691s3.926-5.211,4.472-5.758
	C34.318-0.232,34.696,0.21,34.696,0.21z"/>
<path d="M26.844,11.031H15.158c-0.46,0-0.835-0.373-0.835-0.834V3.52h13.355v6.678C27.678,10.658,27.305,11.031,26.844,11.031z
	 M21.632,5.482c-0.31-0.182-0.666-0.293-1.05-0.293c-1.152,0-2.086,0.934-2.086,2.087s0.934,2.086,2.086,2.086
	c0.384,0,0.74-0.11,1.05-0.292C21.242,8.573,21,7.955,21,7.275S21.242,5.978,21.632,5.482z M23.921,5.188
	c-1.153,0-2.087,0.934-2.087,2.087s0.934,2.086,2.087,2.086s2.086-0.933,2.086-2.086S25.074,5.188,23.921,5.188z M14.323,1.851
	c0-0.462,0.375-0.835,0.835-0.835h11.686c0.461,0,0.834,0.373,0.834,0.835v0.834H14.323V1.851z"/>
<g>
	<polygon points="1.566,4.65 6.567,1.016 11.567,4.65 13.134,4.65 6.567,-0.123 0,4.65 	"/>
	<g>
		<rect x="1.658" y="10.344" width="9.818" height="0.999"/>
		<rect x="0.255" y="11.907" width="12.624" height="0.999"/>
	</g>
	<g>
		<path d="M7.242,6.932C7.137,6.858,6.959,6.786,6.711,6.718v1.568c0.341-0.015,0.575-0.139,0.704-0.372
			C7.482,7.795,7.517,7.656,7.517,7.5C7.518,7.251,7.425,7.062,7.242,6.932z"/>
		<path d="M5.867,4.94C5.756,5.089,5.7,5.245,5.7,5.409c0,0.197,0.065,0.352,0.196,0.462c0.132,0.112,0.309,0.189,0.532,0.232V4.701
			C6.166,4.712,5.978,4.791,5.867,4.94z"/>
		<path d="M6.567,3.154c-1.894,0-3.429,1.536-3.429,3.429c0,1.894,1.535,3.429,3.429,3.429s3.429-1.535,3.429-3.429
			C9.996,4.689,8.461,3.154,6.567,3.154z M7.538,8.481C7.347,8.603,7.072,8.686,6.711,8.725v0.58H6.429v-0.58
			C5.85,8.688,5.457,8.483,5.25,8.111C5.137,7.91,5.081,7.64,5.081,7.296h0.527c0.017,0.273,0.059,0.472,0.129,0.598
			c0.125,0.225,0.354,0.351,0.691,0.378V6.646c-0.432-0.082-0.75-0.217-0.957-0.409C5.266,6.046,5.163,5.782,5.163,5.444
			c0-0.302,0.111-0.574,0.333-0.816c0.221-0.244,0.532-0.367,0.932-0.372V3.86h0.283v0.392c0.396,0.027,0.701,0.144,0.912,0.35
			c0.212,0.206,0.323,0.476,0.333,0.813H7.434C7.42,5.263,7.379,5.132,7.312,5.023c-0.125-0.201-0.325-0.305-0.6-0.317V6.16
			c0.462,0.129,0.775,0.251,0.94,0.364c0.268,0.187,0.402,0.463,0.402,0.83C8.054,7.882,7.882,8.258,7.538,8.481z"/>
	</g>
</g>
</svg>
